<mxfile host="65bd71144e">
    <diagram id="rprSr0glzFBCCF7lDKOt" name="ページ1">
        <mxGraphModel dx="1121" dy="604" grid="1" gridSize="10" guides="1" tooltips="1" connect="1" arrows="1" fold="1" page="1" pageScale="1" pageWidth="1920" pageHeight="1200" background="light-dark(#FFFFFF,#FFFFFF)" math="0" shadow="0">
            <root>
                <mxCell id="0"/>
                <mxCell id="1" parent="0"/>
                <mxCell id="2" value="&lt;font style=&quot;color: light-dark(rgb(0, 0, 0), rgb(0, 0, 0));&quot;&gt;リバーシアプリケーション&lt;/font&gt;" style="ellipse;whiteSpace=wrap;html=1;strokeColor=light-dark(#000000,#000000);fillStyle=solid;fillColor=light-dark(#FFFFFF,#FFFFFF);" parent="1" vertex="1">
                    <mxGeometry x="836" y="545" width="247.5" height="110" as="geometry"/>
                </mxCell>
            </root>
        </mxGraphModel>
    </diagram>
</mxfile>